<svg width="460" height="332" viewBox="0 0 460 332" fill="none" xmlns="http://www.w3.org/2000/svg"><path d="M92.3574 81.0234H170.069" stroke="#E6E6E8" stroke-width="2.45" stroke-miterlimit="10" stroke-linecap="round" stroke-linejoin="round"/><path d="M-92.3975 236.256V278.264C-92.3975 280.569 -92.2694 282.811 -92.0773 285.052C-89.836 310.346 -75.2356 333.143 -52.8228 345.695L-35.4688 355.364L-18.1149 345.695C6.34715 332.055 21.4598 307.529 21.4598 279.545" stroke="#0572EC" stroke-opacity="0.4" stroke-width="2.45" stroke-miterlimit="10" stroke-linecap="round" stroke-linejoin="round"/><path d="M-292 154.033H15.0516C23.1202 154.033 30.8046 157.235 36.5039 162.934L73.6452 200.075C78.4479 204.878 86.2604 204.878 91.0631 200.075L212.285 78.854C217.216 73.9232 223.812 71.1696 230.792 71.1696C230.792 71.1696 282.469 71.6819 309.429 71.6819C316.793 71.6819 327.679 51.4463 338.566 51.4463C350.412 51.4463 356.56 71.6819 368.727 71.6179C404.267 71.5538 438.373 71.2977 458.673 71.1696" stroke="#E6E6E8" stroke-width="2.45" stroke-miterlimit="10" stroke-linecap="round" stroke-linejoin="round"/><path d="M32.1465 119.389L75.6914 162.934C79.4696 166.712 85.5531 166.712 89.3313 162.934L200.947 51.254C207.991 44.21 217.533 40.3037 227.458 40.3037H306.8" stroke="#0572EC" stroke-opacity="0.4" stroke-width="2.45" stroke-miterlimit="10" stroke-linecap="round" stroke-linejoin="round"/><path d="M169.25 121.822C176.038 134.95 179.88 149.87 179.88 165.751C179.88 218.71 136.976 261.678 83.9533 261.678C30.931 261.678 -11.9736 218.774 -11.9736 165.751C-11.9736 161.973 -11.7815 158.259 -11.3333 154.545" stroke="#0572EC" stroke-opacity="0.4" stroke-width="2.45" stroke-miterlimit="10" stroke-linecap="round" stroke-linejoin="round"/><path d="M190.376 102.995C199.533 117.211 205.873 133.156 208.498 149.934C209.459 156.146 209.971 162.485 209.971 168.953C210.227 238.625 153.619 295.489 83.947 295.489C38.4809 295.489 -1.41392 271.412 -23.5706 235.295H-111.621" stroke="#E6E6E8" stroke-width="2.45" stroke-miterlimit="10" stroke-linecap="round" stroke-linejoin="round"/><path d="M247.088 219.731H360.451" stroke="#E6E6E8" stroke-width="2.45" stroke-miterlimit="10" stroke-linecap="round" stroke-linejoin="round"/><path d="M87.7324 330.07C147.479 330.07 199.797 298.436 228.933 250.984H378.395C393.892 250.984 406.443 263.536 406.443 279.032C406.443 294.529 393.892 307.081 378.395 307.081H224.707" stroke="#0572EC" stroke-opacity="0.4" stroke-width="2.45" stroke-miterlimit="10" stroke-linecap="round" stroke-linejoin="round"/><path d="M408.607 100.105H349.008L340.65 90.0508C339.196 88.2943 336.531 88.2943 335.138 90.0508L326.78 100.105H267.181C259.246 100.105 252.826 106.525 252.826 114.46V176.299C252.826 184.234 259.246 190.654 267.181 190.654H408.728C416.662 190.654 423.083 184.234 423.083 176.299V114.46C422.961 106.525 416.541 100.105 408.607 100.105ZM408.607 100.105H349.008" stroke="#0572EC" stroke-opacity="0.4" stroke-width="2.45" stroke-miterlimit="10" stroke-linecap="round" stroke-linejoin="round"/><path d="M32.4089 120.862C23.3157 110.296 9.80398 103.572 -5.24465 103.572C-20.9977 103.572 -35.0858 110.936 -44.179 122.399H-180.908C-194.419 122.399 -205.372 111.445 -205.372 97.9341V97.9341C-205.372 84.4228 -194.419 73.4697 -180.908 73.4697H-87.7213" stroke="#0572EC" stroke-opacity="0.4" stroke-width="2.45" stroke-miterlimit="10" stroke-linecap="round" stroke-linejoin="round"/><path d="M-6.65047 92.8778C3.64118 92.8778 11.9842 84.5347 11.9842 74.2431C11.9842 63.9514 3.64118 55.6084 -6.65047 55.6084C-16.9421 55.6084 -25.2852 63.9514 -25.2852 74.2431C-25.2852 84.5347 -16.9421 92.8778 -6.65047 92.8778Z" stroke="#E6E6E8" stroke-width="2.45" stroke-miterlimit="10" stroke-linecap="round" stroke-linejoin="round"/><path d="M286.93 145.833H391.833" stroke="#E6E6E8" stroke-width="2.45" stroke-miterlimit="10" stroke-linecap="round" stroke-linejoin="round"/><path d="M-6.65963 137.575C23.1543 137.575 47.3233 113.406 47.3233 83.5923C47.3233 53.7784 23.1543 29.6094 -6.65963 29.6094C-36.4736 29.6094 -60.6426 53.7784 -60.6426 83.5923C-60.6426 113.406 -36.4736 137.575 -6.65963 137.575Z" stroke="#E6E6E8" stroke-width="2.45" stroke-miterlimit="10" stroke-linecap="round" stroke-linejoin="round"/><path d="M46.4567 21.6488C32.1842 9.4006 13.6303 2 -6.65218 2C-48.2846 2 -82.6342 33.1809 -87.6221 73.4634" stroke="#0572EC" stroke-opacity="0.4" stroke-width="2.45" stroke-miterlimit="10" stroke-linecap="round" stroke-linejoin="round"/><path d="M307.479 287.263C312.003 287.263 315.67 283.596 315.67 279.072C315.67 274.548 312.003 270.881 307.479 270.881C302.955 270.881 299.288 274.548 299.288 279.072C299.288 283.596 302.955 287.263 307.479 287.263Z" fill="#0572EC" fill-opacity="0.4"/><path d="M335.843 287.263C340.366 287.263 344.034 283.596 344.034 279.072C344.034 274.548 340.366 270.881 335.843 270.881C331.319 270.881 327.651 274.548 327.651 279.072C327.651 283.596 331.319 287.263 335.843 287.263Z" fill="#0572EC" fill-opacity="0.4"/><path d="M364.948 287.263C369.472 287.263 373.139 283.596 373.139 279.072C373.139 274.548 369.472 270.881 364.948 270.881C360.424 270.881 356.757 274.548 356.757 279.072C356.757 283.596 360.424 287.263 364.948 287.263Z" fill="#0572EC" fill-opacity="0.4"/><path d="M189.432 61.7383H99.6378C95.2044 61.7383 91.6104 65.3323 91.6104 69.7658V115.989C91.6104 120.422 95.2044 124.016 99.6378 124.016H128.506" stroke="#0572EC" stroke-opacity="0.4" stroke-width="2.45" stroke-miterlimit="10" stroke-linecap="round" stroke-linejoin="round"/></svg>
