<svg width="569" height="548" fill="none" xmlns="http://www.w3.org/2000/svg"><path d="M254.588 101.511a4.58 4.58 0 014.586-4.575l55.585.066a4.58 4.58 0 014.575 4.586l-.037 29.077a4.58 4.58 0 01-4.586 4.575l-55.585-.066a4.579 4.579 0 01-4.574-4.586l.036-29.077z" fill="#A1D0FF"/><path d="M254.585 103.507l64.746.077-.008 6.568-64.746-.077.008-6.568z" fill="#2D83D9"/><ellipse cx="309.637" cy="127.623" rx="4.141" ry="4.031" fill="#0063CF"/><ellipse cx="304.424" cy="127.615" rx="4.141" ry="4.031" fill="#73B9FF"/><path d="M503.362 275.618a4.581 4.581 0 014.586-4.574l55.586.066a4.58 4.58 0 014.574 4.585l-.036 29.078a4.581 4.581 0 01-4.586 4.574l-55.586-.066a4.58 4.58 0 01-4.574-4.585l.036-29.078z" fill="#A1D0FF"/><path d="M503.352 277.614l64.745.077-.008 6.569-64.746-.077.009-6.569z" fill="#2D83D9"/><ellipse cx="558.408" cy="301.731" rx="4.141" ry="4.031" fill="#0063CF"/><ellipse cx="553.186" cy="301.723" rx="4.141" ry="4.031" fill="#1A8CFF"/><path d="M34.78 242.533a4.58 4.58 0 014.575 4.585l-.068 53.865a4.58 4.58 0 01-4.586 4.575l-30.121-.036a4.58 4.58 0 01-4.574-4.585l.067-53.866a4.58 4.58 0 014.586-4.574l30.121.036z" fill="#A1D0FF"/><path d="M32.601 242.534l-.079 63.025-6.748-.008.08-63.025 6.747.008z" fill="#2D83D9"/><ellipse cx="7.842" cy="296.119" rx="4.141" ry="4.031" fill="#0063CF"/><ellipse cx="7.842" cy="291.044" rx="4.141" ry="4.031" fill="#1A8CFF"/><path d="M186.124 67.58l48.136.638c3.393.045 6.107 2.76 6.061 6.063l-.858 61.357c-.046 3.304-2.835 5.946-6.229 5.901l-48.136-.638 1.026-73.32z" fill="#63A2E2"/><path d="M186.095 67.58l6.129.081-1.026 73.313-6.128-.081 1.025-73.313z" fill="#0063CF"/><path fill-rule="evenodd" clip-rule="evenodd" d="M215.072 90.854c-8.322-.119-15.168 6.352-15.291 14.453-.122 8.101 6.524 14.765 14.846 14.885 8.322.12 15.169-6.35 15.293-14.451.059-3.891-1.472-7.645-4.256-10.437-2.785-2.792-6.595-4.393-10.592-4.45zM201.7 106.24l4.694.072a20.58 20.58 0 00.602 4.593l-4.125-.064a12.332 12.332 0 01-1.171-4.601zm14.287-13.337l-.082 5.307h.033l4.174.065a13.333 13.333 0 00-4.125-5.372zm4.752 7.21c.421 1.501.648 3.046.676 4.601l-5.617-.088.074-4.585 4.867.072zm-6.657-7.25l-.429.32a13.012 13.012 0 00-2.178 2.177 14.276 14.276 0 00-1.65 2.754l4.174.064.083-5.315zm-.107 7.146l-.075 4.585-5.609-.088c.079-1.551.356-3.085.825-4.57l4.859.073zm-12.267 4.4l4.694.073h.017c.072-1.547.315-3.082.725-4.577l-4.124-.057a12.52 12.52 0 00-1.312 4.561zm6.55 1.936h.016c.024 1.551.246 3.094.66 4.593l4.867.072.075-4.585-5.602-.08h-.016zm5.428 11.803l.082-5.307-4.207-.065a13.33 13.33 0 004.125 5.372zm2.318-.289l-.429.321.082-5.307 4.174.056c-.441.976-.994 1.9-1.65 2.754a12.97 12.97 0 01-2.161 2.176h-.016zm-.248-11.41l-.074 4.585 4.859.072c.468-1.484.745-3.018.825-4.569l-5.61-.088zm7.499.112l.016.001a20.97 20.97 0 01-.767 4.576l4.124.056a12.496 12.496 0 001.32-4.56l-4.677-.072v-.001h-.016zm-.603-6.423c.373 1.504.575 3.045.603 4.593l4.693.072a12.327 12.327 0 00-1.171-4.601l-4.125-.064zm3.077-1.783l-3.662-.056a16.114 16.114 0 00-2.854-4.866 13.16 13.16 0 016.549 4.922h-.033zm-14.943-5.028l.013-.015h.033l-.046.014zm-6.661 4.699a13.188 13.188 0 016.661-4.7 16.054 16.054 0 00-2.998 4.756l-3.663-.056zm-.231 14.67l.034.001a13.16 13.16 0 006.483 4.873 16.117 16.117 0 01-2.854-4.818l-3.629-.055-.001-.001h-.033zm17.942.265a16.239 16.239 0 01-3.003 4.77h.033a13.183 13.183 0 006.632-4.714l-3.662-.056z" fill="#fff"/><path d="M429.638 205.99l48.14-.18c3.394-.012 6.156 2.656 6.169 5.959l.242 61.331c.013 3.304-2.728 5.992-6.122 6.005l-48.14.18-.289-73.295z" fill="#63A2E2"/><path d="M429.593 205.99l6.129-.023.289 73.319-6.129.023-.289-73.319z" fill="#0063CF"/><path fill-rule="evenodd" clip-rule="evenodd" d="M458.982 228.749c-8.321.011-15.046 6.597-15.021 14.709.024 8.113 6.789 14.68 15.11 14.67 8.321-.01 15.047-6.595 15.024-14.707-.011-3.897-1.61-7.632-4.444-10.383-2.834-2.752-6.672-4.295-10.669-4.289zm-13.09 15.622l4.695-.001c.055 1.548.285 3.086.686 4.587h-4.126a12.377 12.377 0 01-1.255-4.586zm14.046-13.577l.014 5.311.033-.001 4.176-.001a13.386 13.386 0 00-4.223-5.309zm4.88 7.142c.445 1.493.7 3.034.76 4.588l-5.618-.001-.009-4.591 4.867.004zm-6.767-7.136a6.23 6.23 0 00-.423.32 12.89 12.89 0 00-2.139 2.21 14.252 14.252 0 00-1.601 2.781l4.177-.002-.014-5.309zm.018 7.139l.009 4.592-5.609-.001c.051-1.553.3-3.094.741-4.587l4.859-.004zm-12.184 4.607l4.694-.002c.05-1.55.271-3.09.659-4.593l-4.124.008a12.516 12.516 0 00-1.229 4.587zm6.583 1.817l5.617-.007.009 4.591-4.867.004a18.336 18.336 0 01-.759-4.588zm5.641 11.719l-.014-5.31-4.209.002a13.376 13.376 0 004.223 5.308zm2.311-.334l-.423.328-.014-5.309 4.176-.01a14.328 14.328 0 01-1.6 2.781 12.636 12.636 0 01-2.139 2.21zm-.453-11.4l.009 4.584 4.858-.004c.442-1.493.691-3.034.742-4.587l-5.609.007zm7.499-.022l4.694-.001a12.587 12.587 0 01-1.237 4.595h-4.125c.393-1.503.617-3.043.668-4.594zm-.726-6.413a20.19 20.19 0 01.694 4.587l4.686-.001a12.357 12.357 0 00-1.254-4.586h-4.126zm3.053-1.818h-3.662a16.045 16.045 0 00-2.942-4.821 13.13 13.13 0 016.62 4.82l-.016.001zm-15.026-4.791l.006-.007h.017l-.023.007zm-6.58 4.819a13.147 13.147 0 016.58-4.819 16.045 16.045 0 00-2.917 4.818l-3.663.001zm.031 14.663h.017a13.2 13.2 0 006.586 4.781 16.113 16.113 0 01-2.94-4.782l-3.646.001h-.017zm17.943-.036a16.218 16.218 0 01-2.915 4.826l.017-.001a13.134 13.134 0 006.561-4.826l-3.663.001z" fill="#fff"/><path d="M254.222 76.735c-.033-5.856 4.688-10.628 10.544-10.659l38.944-.205c5.856-.031 10.63 4.691 10.662 10.547.033 5.856-4.688 10.628-10.544 10.66l-38.944.204c-5.856.031-10.629-4.691-10.662-10.547z" fill="#73B9FF"/><ellipse cx="267.535" cy="76.674" rx="3.333" ry="3.244" fill="#fff"/><ellipse cx="278.546" cy="76.618" rx="3.333" ry="3.244" fill="#fff"/><ellipse cx="289.806" cy="76.561" rx="3.333" ry="3.244" fill="#fff"/><ellipse cx="301.058" cy="76.498" rx="3.333" ry="3.244" fill="#fff"/><path d="M207.831 480.515c-.032-5.856 4.689-10.628 10.545-10.659l38.944-.205c5.856-.031 10.629 4.691 10.662 10.547.032 5.856-4.689 10.629-10.545 10.659l-38.944.205c-5.855.031-10.629-4.691-10.662-10.547z" fill="#98C1ED"/><ellipse cx="221.126" cy="480.449" rx="3.333" ry="3.244" fill="#fff"/><ellipse cx="232.138" cy="480.392" rx="3.333" ry="3.244" fill="#fff"/><ellipse cx="243.39" cy="480.337" rx="3.333" ry="3.244" fill="#fff"/><ellipse cx="254.649" cy="480.272" rx="3.333" ry="3.244" fill="#fff"/><path d="M481.711 396.424c-.033-5.856 4.688-10.628 10.544-10.659l38.944-.205c5.856-.031 10.629 4.692 10.662 10.548.033 5.856-4.688 10.628-10.544 10.659l-38.944.205c-5.856.03-10.63-4.692-10.662-10.548z" fill="#A1D0FF"/><ellipse cx="495.006" cy="396.378" rx="3.333" ry="3.244" fill="#2D83D9"/><ellipse cx="506.019" cy="396.322" rx="3.333" ry="3.244" fill="#2D83D9"/><ellipse cx="517.279" cy="396.258" rx="3.333" ry="3.244" fill="#2D83D9"/><ellipse cx="528.53" cy="396.201" rx="3.333" ry="3.244" fill="#2D83D9"/><path d="M398.546 182.657c-.032-5.856 4.688-10.628 10.544-10.659l38.944-.205c5.856-.031 10.63 4.691 10.662 10.547.033 5.856-4.688 10.628-10.544 10.659l-38.944.205c-5.856.031-10.629-4.691-10.662-10.547z" fill="#1A8CFF"/><ellipse cx="411.849" cy="182.611" rx="3.333" ry="3.244" fill="#A1D0FF"/><ellipse cx="422.862" cy="182.547" rx="3.333" ry="3.244" fill="#A1D0FF"/><ellipse cx="434.113" cy="182.49" rx="3.333" ry="3.244" fill="#A1D0FF"/><ellipse cx="445.373" cy="182.434" rx="3.333" ry="3.244" fill="#A1D0FF"/><path d="M16.685 227.224c-.033-5.856 4.688-10.628 10.544-10.659l38.944-.205c5.856-.031 10.63 4.691 10.662 10.547.033 5.856-4.688 10.628-10.544 10.659l-38.944.205c-5.856.031-10.63-4.691-10.662-10.547z" fill="#73B9FF"/><ellipse cx="29.991" cy="227.159" rx="3.333" ry="3.244" fill="#fff"/><ellipse cx="41.003" cy="227.095" rx="3.333" ry="3.244" fill="#fff"/><ellipse cx="63.514" cy="226.982" rx="3.333" ry="3.244" fill="#fff"/><ellipse cx="52.254" cy="227.039" rx="3.333" ry="3.244" fill="#fff"/><path d="M435.056 152.837a7.203 7.203 0 01-7.226 7.176l-60.582-.206a7.2 7.2 0 01-7.175-7.225l.103-28.591a7.2 7.2 0 017.226-7.175l60.582.206a7.198 7.198 0 017.174 7.224l-.102 28.591z" fill="#63A2E2"/><ellipse cx="416.708" cy="138.046" rx="11.903" ry="11.587" fill="#fff"/><ellipse cx="416.708" cy="138.046" rx="11.903" ry="11.587" fill="#A1D0FF"/><mask id="a" maskUnits="userSpaceOnUse" x="404" y="126" width="25" height="24"><ellipse cx="416.708" cy="138.046" rx="11.903" ry="11.587" fill="#fff"/></mask><g mask="url(#a)" fill="#fff"><ellipse cx="416.708" cy="137.107" rx="4.652" ry="4.529"/><path d="M422.863 155.538l-12.431-.042.026-7.106c.012-3.344 2.806-6.045 6.241-6.034 3.435.012 6.21 2.732 6.198 6.076l-.025 7.106h-.009z"/></g><path d="M398.046 130.522a3.28 3.28 0 01-3.291 3.269l-23.664-.081a3.278 3.278 0 01-3.268-3.291l.002-.61a3.28 3.28 0 013.292-3.269l23.663.08a3.28 3.28 0 013.269 3.291l-.003.611zM398.014 139.893a3.28 3.28 0 01-3.292 3.269l-23.664-.081a3.28 3.28 0 01-3.268-3.291l.002-.61a3.282 3.282 0 013.292-3.269l23.664.08a3.279 3.279 0 013.268 3.291l-.002.611zM394.928 150.467a3.172 3.172 0 01-3.183 3.161l-17.067-.058a3.173 3.173 0 01.023-6.344l17.067.058a3.172 3.172 0 013.16 3.183z" fill="#A1D0FF"/><path d="M79.657 264.506l.05 3.212 5.221-.072-.05-3.212c.02-5.002-2.738-9.624-7.21-12.087a14.54 14.54 0 00-14.357.212c-4.394 2.592-7.007 7.293-6.833 12.292l.165 10.961 5.23-.08-.173-10.961c-.136-3.176 1.51-6.173 4.299-7.828a9.196 9.196 0 019.117-.135c2.839 1.572 4.578 4.519 4.541 7.698z" fill="#D0E8FF"/><path d="M53.01 271.713a3.467 3.467 0 013.417-3.521l28.568-.417a3.474 3.474 0 013.523 3.419l.32 20.712a3.466 3.466 0 01-3.417 3.52l-28.568.418a3.474 3.474 0 01-3.523-3.419l-.32-20.712z" fill="#73B9FF"/><path d="M75.195 279.072c-.031-2.027-1.552-3.739-3.608-4.061-2.055-.322-4.052.84-4.734 2.754-.682 1.915.147 4.03 1.965 5.017l.091 5.885 4.281-.064-.09-5.886c1.316-.764 2.114-2.153 2.095-3.645z" fill="#0063CF"/><path d="M396.58 73.679l.05 3.212 5.221-.073-.049-3.211c.019-5.002-2.739-9.624-7.212-12.087a14.538 14.538 0 00-14.356.211c-4.394 2.593-7.007 7.294-6.833 12.293l.165 10.96 5.23-.08-.165-10.96c.054-4.74 3.977-8.575 8.846-8.647 4.869-.072 8.91 3.646 9.111 8.382h-.008z" fill="#D0E8FF"/><path d="M369.95 80.894a3.466 3.466 0 013.416-3.52l28.568-.417a3.474 3.474 0 013.524 3.419l.319 20.712a3.467 3.467 0 01-3.416 3.52l-28.568.417a3.474 3.474 0 01-3.524-3.419l-.319-20.712z" fill="#73B9FF"/><path d="M392.109 88.245c-.028-2.028-1.55-3.743-3.608-4.065-2.057-.322-4.054.842-4.735 2.759-.68 1.917.153 4.033 1.975 5.016l.091 5.886 4.281-.064-.091-5.886c1.316-.764 2.112-2.155 2.087-3.646z" fill="#0063CF"/><path d="M542.916 333.224l.066 4.072 6.599-.097-.066-4.071c-.097-6.274-3.625-12.021-9.256-15.076a18.469 18.469 0 00-18.04.265c-5.533 3.219-8.882 9.067-8.784 15.341l.214 13.924 6.599-.097-.214-13.923c-.062-3.965 2.054-7.66 5.55-9.695a11.673 11.673 0 0111.4-.169c3.558 1.931 5.788 5.562 5.85 9.526h.082z" fill="#D0E8FF"/><path d="M509.074 342.401a4.406 4.406 0 014.342-4.474l36.289-.53a4.414 4.414 0 014.478 4.345l.405 26.307a4.406 4.406 0 01-4.341 4.474l-36.289.53a4.415 4.415 0 01-4.478-4.345l-.406-26.307z" fill="#73B9FF"/><path d="M537.249 351.733c-.033-2.578-1.964-4.76-4.579-5.173-2.615-.413-5.156 1.063-6.024 3.499-.869 2.436.187 5.128 2.503 6.38l.115 7.484 5.444-.081-.115-7.483c1.67-.97 2.683-2.733 2.656-4.626z" fill="#0063CF"/><path d="M161.552 56.303l.058 4.07 6.64-.096-.057-4.079c0-6.34-3.509-12.189-9.182-15.304a18.474 18.474 0 00-18.204.268c-5.574 3.28-8.9 9.229-8.704 15.566l.215 13.924 6.599-.097-.214-13.923c-.155-4.024 1.94-7.813 5.474-9.905a11.678 11.678 0 0111.553-.17c3.598 1.985 5.81 5.711 5.781 9.737l.041.009z" fill="#D0E8FF"/><path d="M127.723 65.452a4.406 4.406 0 014.342-4.474l36.289-.53a4.415 4.415 0 014.478 4.345l.405 26.307a4.405 4.405 0 01-4.341 4.474l-36.29.53a4.414 4.414 0 01-4.477-4.344l-.406-26.308z" fill="#73B9FF"/><path d="M155.91 74.803c-.036-2.567-1.958-4.74-4.56-5.156-2.602-.417-5.137 1.042-6.016 3.463-.88 2.42.15 5.106 2.443 6.374l.115 7.484 5.453-.08-.116-7.484c1.674-.958 2.696-2.712 2.681-4.601z" fill="#0063CF"/><path d="M185.441 485.251l.066 4.071 6.641-.097-.066-4.071c-.097-6.273-3.626-12.02-9.256-15.075a18.469 18.469 0 00-18.04.265c-5.534 3.219-8.882 9.066-8.785 15.34l.215 13.924 6.599-.096-.215-13.924c-.095-6.129 4.931-11.173 11.227-11.266 6.296-.093 11.478 4.8 11.573 10.929h.041z" fill="#D0E8FF"/><path d="M151.591 494.405a4.406 4.406 0 014.342-4.474l36.289-.531a4.416 4.416 0 014.478 4.345l.405 26.308a4.406 4.406 0 01-4.341 4.474l-36.289.53a4.415 4.415 0 01-4.478-4.345l-.406-26.307z" fill="#73B9FF"/><path d="M179.774 503.752c-.037-2.577-1.97-4.756-4.584-5.166-2.614-.41-5.153 1.067-6.02 3.502-.866 2.436.19 5.125 2.504 6.377l.115 7.476 5.445-.08-.116-7.476c1.673-.971 2.686-2.738 2.656-4.633z" fill="#2D83D9"/><ellipse cx="288.181" cy="277.417" rx="133" ry="129.466" fill="#A1D0FF"/><ellipse cx="288.181" cy="277.418" rx="107" ry="104.157" fill="#42A1FF"/><g style="mix-blend-mode:overlay" opacity=".44"><path d="M263.476 294.625s2.368 8.086 14.576 10.262l7.366-11.811-15.137-9.363-6.805 10.912z" fill="#fff"/><path d="M263.476 294.625s2.368 8.086 14.576 10.262l7.366-11.811-15.137-9.363-6.805 10.912z" stroke="#000" stroke-width="1.47"/></g><g style="mix-blend-mode:overlay" opacity=".44"><path d="M312.144 268.223s5.61 6.424.693 17.497l-14.138-.587.387-17.456 13.058.546z" fill="#fff"/><path d="M312.144 268.223s5.61 6.424.693 17.497l-14.138-.587.387-17.456 13.058.546z" stroke="#000" stroke-width="1.47"/></g><g style="mix-blend-mode:overlay" opacity=".44"><path d="M265.184 258.435s2.821-7.837 15.128-8.832l6.599 12.454-15.673 7.885-6.054-11.507z" fill="#fff"/><path d="M265.184 258.435s2.821-7.837 15.128-8.832l6.599 12.454-15.673 7.885-6.054-11.507z" stroke="#000" stroke-width="1.47"/></g><g style="mix-blend-mode:overlay" opacity=".44"><path d="M289.946 304.879s8.249 2.071 15.954-7.332l-6.954-12.293-15.417 8.279 6.417 11.346z" fill="#fff"/><path d="M289.946 304.879s8.249 2.071 15.954-7.332l-6.954-12.293-15.417 8.279 6.417 11.346z" stroke="#000" stroke-width="1.47"/></g><g style="mix-blend-mode:overlay" opacity=".44"><path d="M289.584 249.61s8.306-1.606 15.796 8.279l-7.193 11.9-15.244-9.218 6.641-10.961z" fill="#fff"/><path d="M289.584 249.61s8.306-1.606 15.796 8.279l-7.193 11.9-15.244-9.218 6.641-10.961z" stroke="#000" stroke-width="1.47"/></g><g style="mix-blend-mode:overlay" opacity=".44"><path d="M258.766 285.046s-5.593-6.424-.668-17.497l14.122.634-.421 17.457-13.033-.594z" fill="#fff"/><path d="M258.766 285.046s-5.593-6.424-.668-17.497l14.122.634-.421 17.457-13.033-.594z" stroke="#000" stroke-width="1.47"/></g><ellipse rx="21.871" ry="22.08" transform="matrix(.88659 -.46256 .48232 .876 285.699 277.762)" fill="#fff" stroke="#000" stroke-width="1.47"/><ellipse rx="12.588" ry="12.709" transform="matrix(.88659 -.46256 .48232 .876 285.699 277.762)" fill="#fff" stroke="#000" stroke-width="1.47"/><path d="M281.03 284.106c-3.417-6.036-1.161-13.625 5.04-16.951a12.591 12.591 0 013.638-1.236 12.81 12.81 0 00-10.13.698c-5.475 3.049-7.919 9.48-5.8 15.263 2.118 5.784 8.19 9.259 14.412 8.248-3.074-1.07-5.627-3.217-7.16-6.022z" fill="#fff" stroke="#000" stroke-width="1.47"/><path d="M306.486 315.51c-20.441 10.656-46.112 2.762-57.322-17.665-11.21-20.428-3.737-45.561 16.704-56.208 20.441-10.648 46.111-2.754 57.33 17.665 11.218 20.42 3.728 45.553-16.712 56.208z" fill="#fff" stroke="#000" stroke-width="1.47"/><ellipse cx="408.181" cy="277.417" rx="9" ry="8.761" fill="#2D83D9"/><ellipse cx="288.181" cy="160.606" rx="9" ry="8.761" fill="#2D83D9"/><ellipse cx="204.181" cy="194.676" rx="9" ry="8.761" fill="#2D83D9"/><ellipse cx="373.181" cy="195.65" rx="9" ry="8.761" fill="#2D83D9"/><ellipse cx="373.181" cy="359.185" rx="9" ry="8.761" fill="#2D83D9"/><ellipse cx="168.181" cy="277.417" rx="9" ry="8.761" fill="#2D83D9"/><ellipse cx="288.181" cy="394.229" rx="9" ry="8.761" fill="#2D83D9"/><ellipse cx="203.181" cy="359.185" rx="9" ry="8.761" fill="#2D83D9"/><path fill="#2D83D9" d="M356.114 269.486v17.522h-69v-17.522z"/><path fill-rule="evenodd" clip-rule="evenodd" d="M373.353 269.486a8.762 8.762 0 010 17.522h-17.239v-17.522h17.239z" fill="#A1D0FF"/><path fill="#2D83D9" d="M219.114 287.008v-17.522h69v17.522z"/><path fill-rule="evenodd" clip-rule="evenodd" d="M201.875 287.008a8.761 8.761 0 010-17.522h17.239v17.522h-17.239z" fill="#A1D0FF"/><path fill="#2D83D9" d="M315.181 215.843l15.589 8.761-34.5 58.168-15.59-8.76z"/><path fill-rule="evenodd" clip-rule="evenodd" d="M323.62 201.614c2.519-4.247 8.05-5.729 12.355-3.31a8.694 8.694 0 013.233 12.071l-8.439 14.228-15.588-8.761 8.439-14.228z" fill="#A1D0FF"/><path fill="#2D83D9" d="M261.77 340.938l-15.589-8.761 34.5-58.168 15.59 8.76z"/><path fill-rule="evenodd" clip-rule="evenodd" d="M253.331 355.167c-2.519 4.248-8.051 5.729-12.356 3.31a8.693 8.693 0 01-3.233-12.07l8.439-14.229 15.589 8.761-8.439 14.228z" fill="#A1D0FF"/><path fill="#2D83D9" d="M261.725 215.95l-15.589 8.761 34.5 58.168 15.59-8.76z"/><path fill-rule="evenodd" clip-rule="evenodd" d="M253.286 201.721c-2.519-4.247-8.051-5.729-12.355-3.309a8.692 8.692 0 00-3.233 12.07l8.439 14.228 15.588-8.76-8.439-14.229z" fill="#A1D0FF"/><path fill="#2D83D9" d="M314.608 340.699l15.589-8.761-34.5-58.167-15.589 8.76z"/><path fill-rule="evenodd" clip-rule="evenodd" d="M323.047 354.928c2.519 4.247 8.05 5.729 12.355 3.31a8.693 8.693 0 003.233-12.071l-8.439-14.228-15.588 8.761 8.439 14.228z" fill="#A1D0FF"/><ellipse cx="287.828" cy="277.805" rx="59.59" ry="58.007" fill="#fff"/><path fill-rule="evenodd" clip-rule="evenodd" d="M253.381 277.822c0 18.519 15.423 33.532 34.447 33.532 19.025 0 34.448-15.013 34.448-33.532 0-18.52-15.423-33.532-34.448-33.532-19.024 0-34.447 15.012-34.447 33.532zm-13.033 0c-.007-18.699 11.559-35.56 29.304-42.72 17.745-7.16 38.173-3.209 51.759 10.01 13.585 13.22 17.651 33.104 10.301 50.38-7.349 17.276-24.666 28.541-43.875 28.541-26.22.004-47.48-20.68-47.489-46.203v-.008z" fill="#1A8CFF"/><path fill-rule="evenodd" clip-rule="evenodd" d="M288.068 243.382c19.302 0 35.14 15.417 35.14 34.672-.072 18.863-15.763 34.137-35.14 34.207-19.798 0-35.619-15.417-35.619-34.207-.04-9.207 3.7-18.048 10.389-24.559 6.688-6.511 15.771-10.151 25.23-10.113z" fill="#fff"/><path d="M280.38 267.985V255.25c.004-1.549 1.296-2.803 2.887-2.803h9.123c1.592 0 2.883 1.254 2.887 2.803v23.607c.002.497-.2.974-.56 1.325l-1.799 1.758a1.84 1.84 0 00-.564 1.321c0 .496.203.972.564 1.321l1.799 1.751c.36.351.562.828.56 1.325v12.735c0 .743-.303 1.456-.843 1.981a2.917 2.917 0 01-2.035.821h-9.132c-1.591 0-2.883-1.253-2.887-2.802v-23.608a1.85 1.85 0 01.569-1.325l1.798-1.75a1.844 1.844 0 000-2.65l-1.798-1.75a1.871 1.871 0 01-.569-1.325z" fill="#055EAD"/><path fill-rule="evenodd" clip-rule="evenodd" d="M345.635 91.417c1.545-1.492 2.012-3.744 1.183-5.702-.828-1.958-2.789-3.237-4.965-3.237-2.176 0-4.137 1.279-4.965 3.237-.829 1.958-.362 4.21 1.183 5.702 2.09 2.03 5.474 2.03 7.564 0zm-3.811 46.998l-6.302-6.167-.091-3.477 3.58-3.469-3.563-3.493 3.588-4.336-4.454-3.493 4.479-4.336-4.785-3.212-.074-5.363c-5.942-3.395-8.805-10.248-6.982-16.716 1.823-6.467 7.877-10.94 14.767-10.906 6.889.032 12.899 4.561 14.657 11.046 1.758 6.484-1.173 13.31-7.148 16.648l-.099 29.927-7.573 7.347z" fill="#1A8CFF"/><path fill-rule="evenodd" clip-rule="evenodd" d="M42.314 344.185c1.903-1.825 2.488-4.588 1.481-6.996-1.007-2.409-3.406-3.99-6.078-4.004-2.671-.013-5.088 1.542-6.12 3.94-1.033 2.399-.479 5.167 1.404 7.012 2.561 2.509 6.725 2.53 9.313.048zm-4.685 57.734l-7.746-7.581-.107-4.271 4.405-4.264-4.38-4.28 4.404-5.332-5.469-4.288 5.502-5.323-5.881-3.927-.09-6.592c-7.3-4.172-10.814-12.593-8.572-20.538 2.242-7.945 9.682-13.436 18.147-13.393 8.464.044 15.844 5.611 18 13.579 2.156 7.967-1.45 16.352-8.793 20.448l-.115 36.752-9.305 9.01zM415.891 375.959c-2.086-2.023-5.461-2.018-7.542.01a5.098 5.098 0 000 7.342c2.081 2.029 5.456 2.033 7.542.011a5.114 5.114 0 000-7.363zm40.791 11.065l-30.744.096c-3.434 5.881-10.5 8.781-17.224 7.068-6.723-1.713-11.423-7.611-11.457-14.376-.034-6.765 4.608-12.707 11.314-14.484 6.705-1.776 13.8 1.057 17.293 6.905l5.51.072 3.3 4.657 4.454-4.36 3.58 4.336 4.463-3.485 3.58 3.469 3.564-3.493 3.571.089 6.344 6.134-7.548 7.372z" fill="#42A1FF"/><path d="M526.286 184.602c.048-6.473-3.715-12.402-9.684-15.256l-.099 15.256v.073l-7.539 6.054-7.532-6.167v-.072l.099-15.257c-6.106 2.806-9.981 8.81-9.927 15.382.053 6.573 4.024 12.516 10.175 15.228l-.371 55.22c-.025 3.827 3.141 6.95 7.073 6.974 3.932.024 7.139-3.058 7.164-6.886l.371-55.22c6.222-2.7 10.241-8.698 10.27-15.329zM357.241 494.87c5.71-.009 10.913-3.193 13.397-8.198h-13.512l-5.411-6.319 5.386-6.344h13.512c-2.537-5.062-7.853-8.238-13.639-8.147-5.785.091-10.993 3.433-13.36 8.573l-48.726.08c-2.239-.08-4.344 1.037-5.488 2.912a5.826 5.826 0 000 6.084c1.144 1.875 3.249 2.992 5.488 2.912l48.726-.088c2.415 5.213 7.753 8.556 13.627 8.535z" fill="#98C1ED"/><path d="M70.534 196.952s-4.43-5.324-.891-11.354c3.539-6.03 4.875-6.328 11.367-7.227 6.492-.899 10.336-.433 12.11-1.301 1.773-.867 14.023-11.635 20.374-12.502 6.352-.867 40.61 0 40.61 0s4.578.289 6.054 2.16c1.477 1.871 7.235 9.05 7.383 16.381.149 7.331 1.774 5.46 1.65 8.029-.124 2.57-2.071 6.32-3.696 6.898-1.625.578-20.671 2.152-20.671 2.152h-54.36l-19.93-3.236z" fill="#73B9FF"/><path d="M77.768 178.894s3.25 1.172-1.014 3.733c-4.265 2.562-6.41 1.807-6.41 1.807 1.217-3.052 4.08-5.189 7.424-5.54z" fill="#D0E8FF"/><path d="M124.671 176.974v-10.583s-8.909.112-11.647.803c-4.281 1.019-10.179 6.223-13.768 10.173l25.415-.393zM128.688 166.206v10.703h21.811s-.273-3.268-5.585-8.182c-.016.032-3.951-3.107-16.226-2.521z" fill="#0063CF"/><path d="M166.353 176.942c-.825-.265-5.865-.618-5.774 0 .091.618 5.23 7.227 6.599 7.548 1.369.321-.825-7.548-.825-7.548z" fill="#D0E8FF"/><path d="M71.928 198.943s14.765 1.494 20.762 1.221c5.354-.249-6.392-11.828-6.392-11.828l-11.425 1.277s-7.474 5.942-2.945 9.33zM143.627 200.164s5.173 1.831 21.555-1.975c0 0-1.312-11.242-10.781-10.543-9.47.698-10.774 12.518-10.774 12.518z" fill="#73B9FF"/><path d="M71.177 198.325s-3.596-2.063-2.854-5.259c.743-3.196 6.78-8.15 14.098-7.845 7.316.305 13.453 6.705 13.668 11.659l43.488.105s4.306-13.001 14.642-11.78c10.336 1.22 13.743 9.082 13.743 9.082s-.899 4.014-2.78 4.014c0 0-4.026-8.953-11.59-8.704-7.564.249-9.965 10.68-9.965 10.68H92.69s-2.392-10.929-11.094-11.049c-8.703-.121-10.419 9.097-10.419 9.097z" fill="#0063CF"/><ellipse cx="81.686" cy="199.313" rx="8.406" ry="8.182" fill="#2D83D9"/><ellipse cx="81.686" cy="199.313" rx="5.807" ry="5.653" fill="#73B9FF"/><ellipse cx="154.401" cy="199.313" rx="8.406" ry="8.182" fill="#2D83D9"/><ellipse cx="154.4" cy="199.313" rx="5.807" ry="5.653" fill="#73B9FF"/><path d="M486.692 304.028s6.219 13.128-5.568 24.603l-4.892-4.698s9.585-9.748 6.046-20.114c.009 0 1.114-3.003 4.414.209z" fill="#2D83D9"/><path d="M477.692 306.87s1.427-4.32 9.008-2.843c0 0-2.475-9.402-11.4-4.488-1.831 1.02-4.009 3.26-4.009 4.063l6.401 3.268z" fill="#A1D0FF"/><path d="M438.205 303.305s-6.228 13.129 5.559 24.603l4.9-4.697s-9.585-9.756-6.055-20.074c0-.041-1.105-3.044-4.404.168z" fill="#2D83D9"/><path d="M447.212 306.148s-1.435-4.32-9.007-2.843c0 0 2.474-9.411 11.391-4.489 1.832 1.012 4.009 3.252 4.009 4.063l-6.393 3.269zM484.687 326.856c-5.922-19.584-22.321-17.625-22.321-17.625s-16.407-1.959-22.33 17.625c-5.923 19.585-7.515 35.926 22.33 35.926 29.844 0 28.244-16.333 22.321-35.926z" fill="#A1D0FF"/><path d="M457.557 303.353s-.685-5.62 4.809-5.773c6.277-.185 5.279 5.549 5.279 5.549l2.574.224s.528-3.91-1.576-5.958c-2.103-2.047-4.949-2.481-9.074-1.742-5.353.963-5.353 7.7-5.353 7.7h3.341z" fill="#0063CF"/><path d="M462.366 352.327c-16.737 0-23.584-5.139-25.325-13.097-2.095 13.651 2.071 23.552 25.325 23.552 23.253 0 27.411-9.909 25.324-23.552-1.749 7.958-8.596 13.097-25.324 13.097zM462.085 302.285c-2.574.153-17.694-.289-16.019 8.086 1.773 8.833 5.419 19.914 15.747 20.299h.552c10.328-.385 13.974-11.426 15.739-20.299 1.675-8.375-13.231-8.086-16.019-8.086z" fill="#2D83D9"/><path d="M462.085 303.353c-1.864.113-12.818-.208-11.606 5.862 1.287 6.424 3.927 14.454 11.408 14.711h.405c7.481-.282 10.121-8.279 11.408-14.711 1.213-6.07-9.594-5.862-11.615-5.862z" fill="#D0E8FF"/><path d="M467.917 352.222c-.825-8.503-5.551-8.343-5.551-8.343s-4.71-.16-5.552 8.343c-.841 8.504 5.552.988 5.552.988s6.393 7.524 5.551-.988z" fill="#0063CF"/><rect x="460.254" y="325.845" width="4.215" height="22.668" rx="1.94" fill="#D0E8FF"/><path d="M98.422 231.519a7.064 7.064 0 017.121-7.002l29.722.242a7.056 7.056 0 016.999 7.117l-.62 72.013a7.064 7.064 0 01-7.121 7.002l-29.722-.243a7.055 7.055 0 01-6.999-7.117l.62-72.012z" fill="#2D83D9"/><path d="M133.886 228.573h-4.125v1.39a1.094 1.094 0 01-.339.781 1.158 1.158 0 01-.807.319l-16.267-.137a1.145 1.145 0 01-.8-.331 1.079 1.079 0 01-.322-.785v-1.389h-4.397c-2.278 0-4.124 1.797-4.124 4.015l-.602 69.963c0 2.217 1.846 4.015 4.124 4.015l27.056.224c2.278 0 4.125-1.797 4.125-4.014l.28-31.991.322-37.972a3.959 3.959 0 00-1.181-2.886 4.183 4.183 0 00-2.943-1.202z" fill="#73B9FF"/><path d="M424.342 407.853a7.063 7.063 0 017.12-7.002l29.722.242a7.056 7.056 0 016.999 7.117l-.62 72.013a7.063 7.063 0 01-7.12 7.002l-29.722-.242a7.057 7.057 0 01-6.999-7.118l.62-72.012z" fill="#2D83D9"/><path d="M459.808 404.929l-4.125-.04v1.389a1.092 1.092 0 01-.339.781 1.151 1.151 0 01-.807.319l-16.259-.136a1.138 1.138 0 01-.804-.323 1.08 1.08 0 01-.326-.786v-1.397h-4.397c-2.277 0-4.124 1.798-4.124 4.015l-.61 69.963c0 2.218 1.846 4.015 4.124 4.015l27.056.225c2.278 0 4.125-1.798 4.125-4.015l.28-31.99.33-37.973a3.958 3.958 0 00-1.196-2.86 4.18 4.18 0 00-2.928-1.187z" fill="#73B9FF"/><path d="M99.071 328.066l16.935 5.493-14.79 9.748-.132 17.384-14.097-10.679-17.026 5.243 6.08-16.349-10.378-14.14 17.843.578 10.608-13.988 4.957 16.71z" fill="#A1D0FF"/><path d="M108.091 88.679l14.692 4.77-12.819 8.447-.124 15.08-12.217-9.267-14.765 4.545 5.27-14.172-9.007-12.262 15.483.498 9.198-12.125 4.289 14.486z" fill="#73B9FF"/><path d="M430.78 52.465l7.449 10.27-12.901-.49-7.738 10.07-3.505-12.101-12.233-4.04 10.74-6.993.173-12.567 10.146 7.781 12.332-3.726-4.463 11.796z" fill="#A1D0FF"/><path fill-rule="evenodd" clip-rule="evenodd" d="M412.418 407.828l-.074 15.634c-.058 10.439-2.516 24.965-13.999 34.889a33.592 33.592 0 01-14.023 7.468 1.689 1.689 0 01-.742 0 33.607 33.607 0 01-13.941-7.644c-11.334-10.029-13.652-24.579-13.594-35.018l.041-15.586a1.76 1.76 0 01.66-1.341 1.831 1.831 0 011.485-.353c9.197 1.799 18.197-1.558 24.747-8.784.349-.363.837-.57 1.348-.57.511 0 1 .207 1.349.57 6.467 7.315 15.442 10.727 24.615 9.017a1.855 1.855 0 011.485.369c.412.332.649.828.643 1.349zm-29.737 33.46l18.263-19.737h.016a2.073 2.073 0 00-.226-2.904 2.213 2.213 0 00-2.991.078l-16.663 18.018-4.743-5.058a2.196 2.196 0 00-2.079-.684 2.14 2.14 0 00-1.621 1.44 2.062 2.062 0 00.508 2.078l6.343 6.777c.411.434.987.684 1.592.691a2.22 2.22 0 001.601-.699zM351.83 10.373l-.066 14.34c-.05 9.572-2.31 22.902-12.802 31.983a30.779 30.779 0 01-12.885 6.858 2.297 2.297 0 01-.338 0 1.628 1.628 0 01-.339 0 30.697 30.697 0 01-12.81-6.978c-10.394-9.202-12.522-22.548-12.472-32.119l.074-14.341a1.59 1.59 0 01.602-1.237c.381-.301.88-.422 1.361-.329 8.406 1.678 16.663-1.373 22.668-8.03.321-.332.769-.52 1.237-.52.469 0 .917.188 1.238.52 5.964 6.697 14.163 9.837 22.585 8.247.486-.087.987.043 1.364.354.377.311.591.77.583 1.252zm-27.279 30.69l16.753-18.108v.04a1.898 1.898 0 00.483-1.928 1.97 1.97 0 00-1.516-1.328 2.019 2.019 0 00-1.92.671l-15.285 16.517-4.331-4.673a2.02 2.02 0 00-2.8-.125 1.894 1.894 0 00-.128 2.727l5.815 6.215c.375.398.905.626 1.46.626.56 0 1.093-.23 1.469-.635z" fill="#2D83D9"/><path fill-rule="evenodd" clip-rule="evenodd" d="M127.283 121.408c3.648-8.072 11.932-13.209 20.989-13.016 5.938.124 11.582 2.54 15.689 6.716 4.108 4.176 6.342 9.77 6.212 15.55-.196 8.816-5.828 16.65-14.271 19.847-8.442 3.197-18.032 1.129-24.297-5.241-6.264-6.369-7.97-15.785-4.322-23.856zm33.069 11.571a2.23 2.23 0 00.714-1.582l.041-.811c.028-1.248-.987-2.282-2.268-2.312l-8.134-.169.182-7.909c.023-1.249-.994-2.282-2.277-2.313h-.775c-1.279-.022-2.336.964-2.368 2.208l-.181 7.918-8.126-.177c-1.281-.018-2.339.969-2.375 2.216v.755c-.023 1.248.995 2.278 2.277 2.304l8.125.177-.215 7.966c-.027 1.247.987 2.281 2.269 2.312h.775c1.281.018 2.34-.969 2.376-2.216l.173-7.909 8.133.168a2.353 2.353 0 001.654-.626zM102.278 465.361c.266-12.037 10.506-21.585 22.872-21.327 12.365.264 22.171 10.23 21.909 22.267-.267 12.037-10.508 21.584-22.874 21.325-12.365-.26-22.174-10.228-21.907-22.265zm33.298 3.895c1.28.022 2.34-.963 2.376-2.208v-.755c.019-1.247-.996-2.278-2.277-2.313l-8.125-.168.173-7.918a2.22 2.22 0 00-.643-1.609 2.343 2.343 0 00-1.625-.695h-.775c-1.282-.027-2.345.96-2.376 2.208l-.173 7.917-8.125-.176c-1.284-.023-2.345.967-2.376 2.216v.755c-.023 1.244.99 2.273 2.268 2.304l8.134.177-.182 7.909c-.018 1.247.996 2.278 2.277 2.313h.775c1.282.022 2.341-.969 2.368-2.217l.181-7.909 8.125.169z" fill="#1A8CFF"/><path fill-rule="evenodd" clip-rule="evenodd" d="M360.673 33.929c.218-9.753 8.516-17.488 18.535-17.277 4.814.1 9.388 2.06 12.718 5.445 3.329 3.386 5.14 7.92 5.034 12.605-.221 9.753-8.522 17.486-18.541 17.272-10.019-.213-17.963-8.292-17.746-18.045zm28.324 2.675c.361-.336.569-.798.58-1.283l.017-.635c.023-1.012-.8-1.852-1.84-1.879l-6.599-.136.14-6.424c.023-1.012-.799-1.852-1.839-1.879h-.602c-1.037-.018-1.895.782-1.922 1.79l-.141 6.425-6.599-.145c-1.04-.018-1.899.786-1.922 1.799v.61c-.018 1.01.803 1.845 1.84 1.87l6.599.137-.14 6.424c-.019 1.01.802 1.845 1.839 1.871h.627c1.04.018 1.899-.786 1.922-1.799l.149-6.423 6.549.184c.499.011.982-.171 1.342-.507z" fill="#73B9FF"/><path fill-rule="evenodd" clip-rule="evenodd" d="M518.669 154.656c.133-6.478 5.632-11.626 12.286-11.503 3.204.061 6.251 1.36 8.47 3.61 2.219 2.25 3.427 5.267 3.359 8.386-.147 6.477-5.656 11.614-12.31 11.478-6.655-.136-11.937-5.494-11.805-11.971zm17.887 2.083c.691.009 1.261-.524 1.279-1.197v-.393c.013-.671-.532-1.227-1.221-1.245l-4.38-.096.09-4.264c.014-.671-.531-1.227-1.221-1.244h-.42c-.691-.009-1.261.524-1.279 1.196l-.091 4.264-4.38-.097c-.69-.009-1.26.525-1.278 1.197v.401c-.014.671.531 1.227 1.221 1.245l4.38.096-.091 4.256c-.009.323.115.636.344.87.229.233.545.368.877.375h.42c.691.009 1.261-.525 1.279-1.197l.091-4.264 4.38.097z" fill="#2D83D9"/><path d="M173.596 392.989l-28.104-28.554a6.972 6.972 0 01-2.021-4.922l.041-19.793c0-3.726-4.759-8.198-6.912-8.03-2.698.161-6.946 4.32-6.954 8.03v18.131a7.027 7.027 0 01-2.046 4.914l-29.87 30.088a2.62 2.62 0 00-.298 3.371c.736 1.05 2.13 1.45 3.334.957l24.236-9.861a3.377 3.377 0 013.037.311 3.19 3.19 0 011.475 2.604v18.926c0 1.05-.41 2.06-1.147 2.826-2.54 2.626-6.104 6.818-7.515 8.488a2.526 2.526 0 00-.61 1.646v.546a2.59 2.59 0 001.381 2.31 2.735 2.735 0 002.743-.094l5.502-3.348a2.645 2.645 0 013.16.305l.907.803 1.114 2.208a1.47 1.47 0 001.299.807 1.473 1.473 0 001.324-.767l1.509-2.786c.795-1.102 2.338-1.403 3.506-.683l5.824 3.582a2.627 2.627 0 002.601.079 2.49 2.49 0 001.334-2.175v-.803a2.417 2.417 0 00-.578-1.606c-1.344-1.606-4.801-5.701-7.325-8.367a4.05 4.05 0 01-1.138-2.826c0-3.71 0-12.768.041-18.421a3.193 3.193 0 011.483-2.659 3.378 3.378 0 013.095-.28l22.553 9.291c1.168.392 2.461-.02 3.164-1.009a2.626 2.626 0 00-.145-3.239zM455.634 59.01l-19.393 18.066a4.905 4.905 0 01-3.341 1.301h-13.437c-2.533 0-5.568 3.067-5.486 4.449.107 1.734 2.937 4.472 5.461 4.472h12.316a4.96 4.96 0 013.34 1.317l20.433 19.223c.619.59 1.58.671 2.295.194a1.74 1.74 0 00.642-2.153l-6.698-15.594a2.07 2.07 0 01.196-1.995 2.195 2.195 0 011.816-.944h12.836a2.814 2.814 0 011.922.739c1.781 1.606 4.627 3.927 5.774 4.818.319.247.714.385 1.122.393h.371a1.782 1.782 0 001.556-.887 1.686 1.686 0 00-.047-1.755l-2.276-3.54a1.629 1.629 0 01.206-2.032l.569-.586 1.501-.715a.937.937 0 00.54-.843.937.937 0 00-.54-.843l-1.889-.972a1.635 1.635 0 01-.462-2.256l2.475-3.75c.305-.51.305-1.14.002-1.65a1.7 1.7 0 00-1.47-.823h-.545c-.39 0-.769.13-1.072.37-1.097.866-3.869 3.09-5.675 4.713a2.83 2.83 0 01-1.922.73h-12.506a2.192 2.192 0 01-1.834-.963 2.07 2.07 0 01-.162-2.024l6.311-14.517a1.74 1.74 0 00-.663-2.117 1.853 1.853 0 00-2.266.173zM430.112 504.337l-18.577-18.878a4.642 4.642 0 01-1.336-3.252v-13.08c0-2.465-3.151-5.428-4.578-5.34-1.782.104-4.586 2.851-4.595 5.316v11.988a4.596 4.596 0 01-1.352 3.212l-19.732 19.954a1.73 1.73 0 00-.195 2.225 1.841 1.841 0 002.2.633l16.019-6.52a2.241 2.241 0 012.052.192c.608.394.974 1.057.975 1.768v12.494c0 .694-.272 1.363-.759 1.871-1.649 1.734-4.033 4.504-4.949 5.621a1.72 1.72 0 00-.404 1.092v.361a1.718 1.718 0 00.911 1.514 1.814 1.814 0 001.803-.045l3.629-2.224a1.77 1.77 0 012.096.209l.602.554.734 1.461a.966.966 0 00.866.525.966.966 0 00.866-.525l.998-1.838a1.737 1.737 0 012.318-.45l3.852 2.409a1.743 1.743 0 001.718.046c.539-.288.876-.837.881-1.435v-.53c0-.38-.134-.749-.38-1.044-.89-1.068-3.175-3.766-4.85-5.533a2.718 2.718 0 01-.751-1.863v-12.173a2.116 2.116 0 01.982-1.766 2.239 2.239 0 012.054-.185l14.914 6.087c.789.3 1.687.029 2.163-.653a1.731 1.731 0 00-.175-2.198zM267.301 422.365l76.369-.13.064 35.757-76.369.13-.064-35.757z" fill="#73B9FF"/><path d="M332.486 426.112l-53.783.089a7.205 7.205 0 01-2.19 5.174 7.608 7.608 0 01-5.308 2.149v13.458a7.61 7.61 0 015.313 2.128 7.211 7.211 0 012.21 5.163l53.783-.089c-.005-4.032 3.347-7.306 7.49-7.315v-13.466a7.6 7.6 0 01-5.31-2.129 7.204 7.204 0 01-2.205-5.162z" fill="#2D83D9"/><ellipse cx="286.177" cy="440.919" rx="4.619" ry="4.497" fill="#73B9FF"/><ellipse cx="325.095" cy="440.855" rx="4.619" ry="4.497" fill="#73B9FF"/><path d="M325.087 438.261l-2.004 2.593 2.012 2.594 2.005-2.602-2.013-2.585zM286.177 438.325l-2.005 2.594 2.013 2.593 1.996-2.593-2.004-2.594z" fill="#2D83D9"/><ellipse cx="305.884" cy="440.196" rx="10.575" ry="10.294" fill="#73B9FF"/><path d="M47.512 124.539l68.235-.116.057 31.95-68.235.116-.057-31.95z" fill="#73B9FF"/><path d="M105.765 127.872l-48.058.08a6.44 6.44 0 01-1.956 4.624 6.802 6.802 0 01-4.742 1.921v12.044c3.705-.013 6.721 2.898 6.74 6.504l48.049-.08c0-3.605 2.995-6.531 6.698-6.544v-12.045a6.798 6.798 0 01-4.749-1.895 6.443 6.443 0 01-1.982-4.609z" fill="#2D83D9"/><ellipse cx="64.389" cy="141.105" rx="4.124" ry="4.015" fill="#73B9FF"/><ellipse cx="99.158" cy="141.048" rx="4.124" ry="4.015" fill="#73B9FF"/><path d="M99.158 138.728l-1.79 2.328 1.798 2.313 1.79-2.321-1.798-2.32zM64.389 138.792l-1.79 2.321 1.798 2.312 1.79-2.32-1.798-2.313z" fill="#2D83D9"/><ellipse cx="82" cy="140.463" rx="9.445" ry="9.194" fill="#73B9FF"/><path d="M169.752 408.246h68.754c1.691 0 3.061 1.334 3.061 2.979v42.1h-74.876v-42.1c0-1.645 1.371-2.979 3.061-2.979z" fill="#A1D0FF"/><path fill="#63A2E2" d="M170.568 412.021h67.319v38.326h-67.319z"/><path d="M159.086 453.325h89.649a5.822 5.822 0 01-1.776 4.173 6.147 6.147 0 01-4.287 1.729h-77.54c-3.348 0-6.063-2.642-6.063-5.902h.017z" fill="#0063CF"/><path d="M216.127 8.823h68.755c1.69 0 3.06 1.334 3.06 2.98v42.1h-74.85v-42.1c0-1.637 1.355-2.967 3.035-2.98z" fill="#A1D0FF"/><path fill="#63A2E2" d="M216.969 12.598h67.319v38.326h-67.319z"/><path d="M205.486 53.91h89.649c0 3.26-2.714 5.902-6.063 5.902h-77.539c-3.349 0-6.063-2.642-6.063-5.902h.016z" fill="#0063CF"/><path d="M507.875 160.239h-54.443c-2.547 0-4.611-2.009-4.611-4.488v-33.709l63.648.225v33.5c-.009 2.466-2.06 4.464-4.594 4.472z" fill="#2D83D9"/><path d="M486.749 105.292h-13.033c-4.445.013-8.046 3.518-8.059 7.845v6.095c0 .731.609 1.324 1.361 1.324h2.771v-6.865c.005-2.514 2.095-4.552 4.678-4.561h11.548c2.584.009 4.676 2.046 4.685 4.561v6.865h2.772c.752 0 1.361-.593 1.361-1.324v-6.095c-.014-4.337-3.629-7.845-8.084-7.845z" fill="#A1D0FF"/><path d="M514.342 132.312a2.363 2.363 0 01-1.51 2.184c-4.289 1.694-17.248 6.271-32.17 6.271a87.587 87.587 0 01-32.171-6.255 2.361 2.361 0 01-1.477-2.168v-9.636c0-2.572 2.142-4.657 4.785-4.657h57.792c2.642 0 4.784 2.085 4.784 4.657l-.033 9.604z" fill="#A1D0FF"/><path d="M464.543 114.446h5.923c.911 0 1.65.719 1.65 1.606v2.016h-9.231v-2.016c0-.427.175-.837.486-1.138.312-.302.733-.47 1.172-.468zM489.785 114.446h5.923c.911 0 1.649.719 1.649 1.606v2.016h-9.23v-2.016c0-.427.175-.837.486-1.138.311-.302.733-.47 1.172-.468z" fill="#2D83D9"/><rect x="473.65" y="138.56" width="13.256" height="5.797" rx="1.94" fill="#fff"/><path d="M368.773 541.049h-40.717c-1.904 0-3.448-1.502-3.448-3.356v-25.221l47.613.168v25.053c0 1.854-1.544 3.356-3.448 3.356z" fill="#2D83D9"/><path d="M352.968 499.953h-9.75c-3.327.009-6.021 2.632-6.03 5.87v4.553c.004.548.46.991 1.023.995h2.07v-5.139c.005-1.883 1.572-3.408 3.506-3.412h8.612c1.934.004 3.501 1.529 3.506 3.412v5.139h2.103c.563-.004 1.019-.447 1.023-.995v-4.513a5.805 5.805 0 00-1.768-4.183 6.13 6.13 0 00-4.295-1.727z" fill="#A1D0FF"/><path d="M373.607 520.164a1.76 1.76 0 01-1.13 1.606 69.118 69.118 0 01-24.062 4.698 65.66 65.66 0 01-24.087-4.682 1.766 1.766 0 01-1.105-1.606v-7.226c0-1.925 1.602-3.485 3.58-3.485h43.224c1.977 0 3.58 1.56 3.58 3.485v7.21z" fill="#A1D0FF"/><path d="M336.363 506.795h4.43c.688 0 1.246.543 1.246 1.212v1.51h-6.913v-1.51c0-.666.553-1.208 1.237-1.212zM355.237 506.795h4.421c.688 0 1.246.543 1.246 1.212v1.51h-6.913v-1.51c0-.669.558-1.212 1.246-1.212z" fill="#2D83D9"/><rect x="343.168" y="524.837" width="9.915" height="4.336" rx="1.45" fill="#fff"/><path d="M539.377 196.069l6.443-19.874 6.698 19.89s-6.574 3.236-13.141-.016z" fill="#A1D0FF"/><path d="M542.479 186.361c2.23.487 4.545.465 6.764-.065l-3.431-10.197-3.333 10.262z" fill="#0063CF"/><path d="M539.268 249.07l.076-53.02 12.827.017-.076 53.021-12.827-.018z" fill="#A1D0FF"/><path d="M549 249.085l.077-53.02 3.406.004-.076 53.021-3.407-.005z" fill="#2D83D9"/><path d="M539.27 249.068l.076-53.02 3.406.005-.076 53.02-3.406-.005z" fill="#D0E8FF"/><path d="M539.27 253.594c-.234 2.428.965 4.775 3.094 6.06a6.752 6.752 0 006.953 0c2.129-1.285 3.328-3.632 3.094-6.06v-8.295h-13.149l.008 8.295z" fill="#0063CF"/><path d="M542.683 246.621l.011-8.07 6.327.009-.011 8.07-6.327-.009z" fill="#D0E8FF"/><path d="M549.008 246.632l.011-8.07 3.407.005-.011 8.069-3.407-.004z" fill="#A1D0FF"/><path d="M539.277 246.615l.012-8.07 3.407.005-.012 8.07-3.407-.005z" fill="#fff"/><path d="M71.053 384.615l7.004-21.6 7.283 21.6s-7.151 3.509-14.287 0z" fill="#D0E8FF"/><path d="M74.427 374.047c2.424.521 4.938.497 7.35-.072l-3.728-11.089-3.622 11.161z" fill="#0063CF"/><path d="M70.939 442.185l.083-57.622 13.94.019-.082 57.622-13.941-.019z" fill="#A1D0FF"/><path d="M81.522 442.2l.082-57.621 3.704.005-.083 57.621-3.703-.005z" fill="#2D83D9"/><path d="M70.94 442.184l.083-57.622 3.703.005-.082 57.622-3.704-.005z" fill="#D0E8FF"/><path d="M70.946 447.101c-.089 2.539 1.252 4.924 3.498 6.219a7.313 7.313 0 007.283 0c2.246-1.295 3.587-3.68 3.498-6.219v-9.009H70.946v9.009z" fill="#0063CF"/><path d="M74.653 439.522l.013-8.768 6.871.009-.012 8.769-6.872-.01z" fill="#D0E8FF"/><path d="M81.523 439.532l.013-8.768 3.704.005-.013 8.768-3.704-.005z" fill="#A1D0FF"/><path d="M70.942 439.517l.013-8.769 3.703.005-.012 8.769-3.704-.005z" fill="#fff"/><ellipse cx="499.312" cy="434.519" rx="19.657" ry="19.135" fill="#fff"/><ellipse cx="499.312" cy="434.519" rx="19.657" ry="19.135" fill="#73B9FF"/><mask id="b" maskUnits="userSpaceOnUse" x="479" y="415" width="40" height="39"><ellipse cx="499.312" cy="434.519" rx="19.657" ry="19.135" fill="#fff"/></mask><g mask="url(#b)" fill="#fff"><ellipse cx="499.321" cy="432.969" rx="7.68" ry="7.476"/><path d="M509.478 463.445l-20.531-.069.042-11.732a9.865 9.865 0 013.033-7.059 10.419 10.419 0 017.272-2.903 10.409 10.409 0 017.252 2.953 9.86 9.86 0 012.982 7.079l-.042 11.731h-.008z"/></g><ellipse cx="188.65" cy="34.775" rx="16.514" ry="16.076" fill="#fff"/><ellipse cx="188.65" cy="34.775" rx="16.514" ry="16.076" fill="#1A8CFF"/><mask id="c" maskUnits="userSpaceOnUse" x="172" y="18" width="34" height="33"><ellipse cx="188.65" cy="34.775" rx="16.514" ry="16.076" fill="#fff"/></mask><g mask="url(#c)" fill="#fff"><ellipse cx="188.658" cy="33.466" rx="6.451" ry="6.279"/><path d="M197.187 59.056l-17.257-.059.035-9.86a8.289 8.289 0 012.549-5.93 8.75 8.75 0 016.11-2.44c4.765.016 8.615 3.79 8.598 8.428l-.035 9.86z"/></g><ellipse cx="41.003" cy="185.084" rx="19.657" ry="19.135" fill="#fff"/><ellipse cx="41.003" cy="185.084" rx="19.657" ry="19.135" fill="#1A8CFF"/><mask id="d" maskUnits="userSpaceOnUse" x="21" y="165" width="40" height="40"><ellipse cx="41.003" cy="185.084" rx="19.657" ry="19.135" fill="#fff"/></mask><g mask="url(#d)" fill="#fff"><ellipse cx="41.011" cy="183.534" rx="7.68" ry="7.476"/><path d="M51.17 213.984l-20.54-.069.043-11.724c.02-5.521 4.634-9.981 10.305-9.962 5.672.019 10.254 4.511 10.234 10.032l-.042 11.723z"/></g><path d="M282.688 509.662s-1.832-.434-2.401 1.108c-.569 1.542-3.118 10.872-3.118 10.872-.431.95-.011 2.061.949 2.513a26.052 26.052 0 004.858 1.847s3.976-7.62 2.269-13.763c-1.708-6.143-2.557-2.577-2.557-2.577z" fill="#2D83D9"/><path d="M279.149 502.651l-1.98-3.211c-.79-1.295-.398-2.966.891-3.799l4.454-2.882h3.044c.378 0 .685.298.685.666v6.055a.66.66 0 01-.207.477.697.697 0 01-.494.189l-3.028-.056-.28 2.513-.941 1.566-.989-.466a2.68 2.68 0 01-1.155-1.052z" fill="#A1D0FF"/><ellipse cx="236.618" cy="536.561" rx="11.202" ry="10.904" fill="#0063CF"/><ellipse cx="236.618" cy="536.561" rx="6.83" ry="6.649" fill="#73B9FF"/><ellipse cx="236.618" cy="536.561" rx="4.974" ry="4.842" fill="#73B9FF"/><path d="M290.821 515.957c.866.803 4.347 6.785 4.347 6.785l-4.347 2.305-3.885-6.858 3.885-2.232z" fill="#0063CF"/><path d="M232.947 515.322h-3.358a5.196 5.196 0 00-4.124 2.024 2.218 2.218 0 00-.414 1.892c.16.659.614 1.214 1.239 1.512l1.056.498 5.601-5.926z" fill="#fff"/><path d="M221.151 531.446c-.429 0 4.52-12.462 12.142-16.91a4.53 4.53 0 012.277-.619h28.706s-7.383 2.811-7.383 9.291 5.667 6.753 7.383 6.753h12.332s4.95.321 7.111-8.656c1.74-7.074-1.741-13.699-3.3-16.188a1.2 1.2 0 01-.148-.934c.081-.318.288-.592.577-.76l1.271-.771a1.288 1.288 0 011.045-.112c.348.113.629.367.769.698 1.304 3.043 4.793 10.366 8.785 11.659.272.09.455.339.454.618v1.767a.675.675 0 01-.445.626c-1.32.466-5.222 2.297-7.49 7.958-2.747 6.881-7.144 7.877-10.724 8.335-3.58.457-26.24 0-26.24 0v-3.574h-18.312s-1.65-.136-2.409 2.144a11.532 11.532 0 00-6.401-1.325z" fill="#73B9FF"/><ellipse cx="300.142" cy="536.786" rx="11.202" ry="10.904" fill="#0063CF"/><ellipse cx="300.143" cy="536.785" rx="6.83" ry="6.649" fill="#73B9FF"/><ellipse cx="300.143" cy="536.785" rx="4.974" ry="4.842" fill="#73B9FF"/><path d="M299.936 535.702l2.532-2.899a1.57 1.57 0 00.19-1.838l-4.124-7.332 1.649-.891 4.496 8.215a2.296 2.296 0 01-.338 2.682l-2.986 3.211a.925.925 0 01-.664.278.925.925 0 01-.664-.278.882.882 0 01-.091-1.148z" fill="#DFE3E8"/><path d="M248.298 534.232h-1.427a1.16 1.16 0 01-1.097-.803l-1.807-5.083 5.073-.345-.742 6.231z" fill="#73B9FF"/><path d="M283.645 533.06s2.474-10.6 8.372-13.563c5.898-2.963 13.726-.353 17.496 4.449 0 0 .355 1.558-2.334 1.558-1.493 0-4.702.152-7.259.289a11.732 11.732 0 00-7.07 3.163 10.297 10.297 0 00-1.971 3.212c-.22.563-.776.934-1.394.932l-5.84-.04z" fill="#2D83D9"/><path d="M286.243 493.458c.743 0 1.345.586 1.345 1.309v3.38c-.009.717-.609 1.293-1.345 1.293v-6.006.024z" fill="#fff"/><path d="M238.582 513.921s-1.37-8.03 7.25-7.058c8.62.971 11.07-.072 15.187-.072 3.604 0 6.599 2.296 6.368 5.62-.069.837-.788 1.481-1.65 1.478l-27.155.032z" fill="#A1D0FF"/><ellipse cx="238.952" cy="529.262" rx="6.459" ry="6.287" fill="#0063CF"/><path d="M227.066 532.578s-3.803-1.798-2.285-4.866c1.517-3.067 8.051-12.173 19.137-11.643 10.286.49 12.53 8.439 10.031 14.405-.339.802-1.214 1.257-2.087 1.084a121.095 121.095 0 00-4.801-.803c-.473-.064-.95-.096-1.427-.096h-10.682a6.914 6.914 0 00-4.018 1.237c-1.006.738-2.433 1.381-3.868.682z" fill="#2D83D9"/></svg>